# xmcd CD database file
# Copyright (C) 1996 Ti Kan
#
# Track frame offsets:
#  183
#  15438
#  34920
#  49925
#  66098
#  85973
#  102663
#  114678
#  130628
#  153988
#  193703
#  203660
#  214198
#  224260
#  246515
#  266045
#
# Disc length: 3902 seconds
#
# Revision: 1
# Processed by: cddbd v1.4b41PL1 Copyright (c) Steve Scherf et al.
# Submitted via: CDWizzard Release:4.14
#
DISCID=ee0f3c10
DTITLE=Richard Greene - The Greene Fiddler
DYEAR=1900
DGENRE=
TTITLE0=Ghost Train
TTITLE1=N.P.D.
TTITLE2=2 Much 2 Soon
TTITLE3=Pagan Annie
TTITLE4=Blue Rondo A La Turk
TTITLE5=An Old Irish Air
TTITLE6=Bach!
TTITLE7=Ramblin'
TTITLE8=Private Driver
TTITLE9=Enjoy Enjoy
TTITLE10=Grey Eagle
TTITLE11=Soldier's Joy
TTITLE12=Fiddle Rock
TTITLE13=Little Rabblit
TTITLE14=Rain and Snow
TTITLE15=Orange Blossom Special
EXTD=
EXTT0=
EXTT1=
EXTT2=
EXTT3=
EXTT4=
EXTT5=
EXTT6=
EXTT7=
EXTT8=
EXTT9=
EXTT10=
EXTT11=
EXTT12=
EXTT13=
EXTT14=
EXTT15=
PLAYORDER=
